<svg xmlns="http://www.w3.org/2000/svg" xmlns:xlink="http://www.w3.org/1999/xlink" width="90" zoomAndPan="magnify" viewBox="0 0 67.5 49.499998" height="66" preserveAspectRatio="xMidYMid meet" version="1.0"><defs><g/><clipPath id="f21627f1bf"><path d="M 0.0898438 10 L 20 10 L 20 42 L 0.0898438 42 Z M 0.0898438 10 " clip-rule="nonzero"/></clipPath><clipPath id="7667913fba"><path d="M 31.570312 36.109375 L 37.488281 36.109375 L 37.488281 41.480469 L 31.570312 41.480469 Z M 31.570312 36.109375 " clip-rule="nonzero"/></clipPath><clipPath id="932442e2fe"><path d="M 32.3125 36.109375 L 36.730469 36.109375 C 37.140625 36.109375 37.472656 36.441406 37.472656 36.851562 L 37.472656 40.738281 C 37.472656 41.148438 37.140625 41.480469 36.730469 41.480469 L 32.3125 41.480469 C 31.902344 41.480469 31.570312 41.148438 31.570312 40.738281 L 31.570312 36.851562 C 31.570312 36.441406 31.902344 36.109375 32.3125 36.109375 Z M 32.3125 36.109375 " clip-rule="nonzero"/></clipPath><clipPath id="d136874c9a"><path d="M 6.136719 45.25 L 57 45.25 L 57 49.003906 L 6.136719 49.003906 Z M 6.136719 45.25 " clip-rule="nonzero"/></clipPath></defs><g clip-path="url(#f21627f1bf)"><g fill="#d4d4d4" fill-opacity="1"><g transform="translate(0.813797, 41.240851)"><g><path d="M 6.234375 -19.296875 L 11.984375 -19.296875 L 11.984375 -0.34375 C 11.984375 -0.113281 11.832031 0 11.53125 0 L 6.65625 0 C 6.375 0 6.234375 -0.113281 6.234375 -0.34375 Z M 0.421875 -25.078125 C 0.140625 -25.078125 0 -25.191406 0 -25.421875 L 0 -29.921875 C 0 -30.148438 0.140625 -30.265625 0.421875 -30.265625 L 17.78125 -30.265625 C 18.0625 -30.265625 18.203125 -30.148438 18.203125 -29.921875 L 18.203125 -25.421875 C 18.203125 -25.191406 18.0625 -25.078125 17.78125 -25.078125 Z M 0.421875 -25.078125 "/></g></g></g></g><g fill="#d4d4d4" fill-opacity="1"><g transform="translate(19.916317, 41.240851)"><g><path d="M 14.75 -21.265625 C 14.75 -22.171875 14.519531 -22.867188 14.0625 -23.359375 C 13.613281 -23.847656 13.097656 -24.195312 12.515625 -24.40625 C 11.941406 -24.625 11.425781 -24.753906 10.96875 -24.796875 C 10.519531 -24.835938 10.296875 -24.859375 10.296875 -24.859375 L 5.75 -24.859375 L 5.75 -17.9375 L 10.296875 -17.9375 C 10.296875 -17.9375 10.519531 -17.953125 10.96875 -17.984375 C 11.425781 -18.023438 11.941406 -18.144531 12.515625 -18.34375 C 13.097656 -18.550781 13.613281 -18.878906 14.0625 -19.328125 C 14.519531 -19.785156 14.75 -20.429688 14.75 -21.265625 Z M 20.546875 -21.59375 C 20.546875 -19.832031 20.132812 -18.429688 19.3125 -17.390625 C 18.488281 -16.359375 17.5 -15.601562 16.34375 -15.125 C 17.550781 -14.726562 18.46875 -14.179688 19.09375 -13.484375 C 19.726562 -12.796875 20.175781 -12.09375 20.4375 -11.375 C 20.707031 -10.65625 20.859375 -10.046875 20.890625 -9.546875 C 20.929688 -9.054688 20.953125 -8.8125 20.953125 -8.8125 C 20.953125 -7.125 20.65625 -5.738281 20.0625 -4.65625 C 19.46875 -3.570312 18.710938 -2.710938 17.796875 -2.078125 C 16.878906 -1.453125 15.921875 -0.988281 14.921875 -0.6875 C 13.921875 -0.382812 13 -0.191406 12.15625 -0.109375 C 11.3125 -0.0351562 10.691406 0 10.296875 0 L 5.78125 0 L 5.78125 -5.515625 L 10.296875 -5.515625 C 10.921875 -5.515625 11.609375 -5.597656 12.359375 -5.765625 C 13.117188 -5.929688 13.773438 -6.265625 14.328125 -6.765625 C 14.890625 -7.273438 15.171875 -8.007812 15.171875 -8.96875 C 15.171875 -9.675781 15.003906 -10.25 14.671875 -10.6875 C 14.347656 -11.125 13.945312 -11.457031 13.46875 -11.6875 C 12.988281 -11.914062 12.5 -12.066406 12 -12.140625 C 11.507812 -12.210938 11.101562 -12.253906 10.78125 -12.265625 C 10.457031 -12.285156 10.296875 -12.296875 10.296875 -12.296875 L 0 -12.296875 L 0 -29.921875 C 0 -30.148438 0.140625 -30.265625 0.421875 -30.265625 L 10.296875 -30.265625 C 10.296875 -30.265625 10.539062 -30.25 11.03125 -30.21875 C 11.519531 -30.195312 12.15625 -30.113281 12.9375 -29.96875 C 13.71875 -29.832031 14.539062 -29.59375 15.40625 -29.25 C 16.28125 -28.914062 17.109375 -28.429688 17.890625 -27.796875 C 18.671875 -27.171875 19.304688 -26.351562 19.796875 -25.34375 C 20.296875 -24.332031 20.546875 -23.082031 20.546875 -21.59375 Z M 20.546875 -21.59375 "/></g></g></g><g fill="#d4d4d4" fill-opacity="1"><g transform="translate(41.931493, 41.240851)"><g><path d="M 23.078125 -24.703125 L 17.28125 -24.703125 C 16.550781 -24.722656 15.691406 -24.703125 14.703125 -24.640625 C 13.722656 -24.578125 12.71875 -24.390625 11.6875 -24.078125 C 10.65625 -23.765625 9.691406 -23.265625 8.796875 -22.578125 C 7.898438 -21.898438 7.179688 -20.957031 6.640625 -19.75 C 6.097656 -18.539062 5.828125 -17 5.828125 -15.125 C 5.828125 -12.726562 6.320312 -10.804688 7.3125 -9.359375 C 8.3125 -7.910156 9.675781 -6.882812 11.40625 -6.28125 C 13.132812 -5.675781 15.09375 -5.421875 17.28125 -5.515625 L 17.28125 -13.09375 L 11.46875 -13.09375 L 11.46875 -18.875 L 23.078125 -18.875 L 23.078125 -0.34375 C 23.078125 -0.113281 22.9375 0 22.65625 0 L 17.734375 0 C 16.253906 0 14.695312 -0.0976562 13.0625 -0.296875 C 11.4375 -0.503906 9.847656 -0.894531 8.296875 -1.46875 C 6.753906 -2.050781 5.359375 -2.894531 4.109375 -4 C 2.859375 -5.113281 1.859375 -6.578125 1.109375 -8.390625 C 0.367188 -10.210938 0 -12.457031 0 -15.125 C 0 -17.726562 0.363281 -19.914062 1.09375 -21.6875 C 1.820312 -23.46875 2.8125 -24.921875 4.0625 -26.046875 C 5.3125 -27.171875 6.703125 -28.039062 8.234375 -28.65625 C 9.773438 -29.269531 11.363281 -29.691406 13 -29.921875 C 14.644531 -30.148438 16.222656 -30.265625 17.734375 -30.265625 L 22.65625 -30.265625 C 22.9375 -30.265625 23.078125 -30.148438 23.078125 -29.921875 Z M 23.078125 -24.703125 "/></g></g></g><g clip-path="url(#7667913fba)"><g clip-path="url(#932442e2fe)"><path fill="#fd7600" d="M 31.570312 36.109375 L 37.464844 36.109375 L 37.464844 41.480469 L 31.570312 41.480469 Z M 31.570312 36.109375 " fill-opacity="1" fill-rule="nonzero"/></g></g><g clip-path="url(#d136874c9a)"><path fill="#fd7600" d="M 6.269531 45.25 L 56.894531 46.375 L 56.894531 49.0625 C 56.894531 49.0625 6.269531 49.066406 6.269531 49.066406 Z M 6.269531 45.25 " fill-opacity="1" fill-rule="nonzero"/></g></svg>